<svg version="1.1" id="Layer_1" xmlns="http://www.w3.org/2000/svg" xmlns:xlink="http://www.w3.org/1999/xlink" x="0px" y="0px"
	 viewBox="0 0 512 512" style="enable-background:new 0 0 512 512;" xml:space="preserve">
<rect x="58.099" y="141.922" style="fill:#8ECAC1;" width="395.8" height="313.87"/>
<rect x="10.199" y="56.208" style="fill:#F2D59F;" width="491.602" height="85.714"/>
<g>
	<path style="fill:#4D3D36;" d="M501.801,46.009H10.199C4.566,46.009,0,50.575,0,56.208v85.715c0,5.633,4.566,10.199,10.199,10.199
		h37.7v303.67c0,5.633,4.566,10.199,10.199,10.199h395.802c5.633,0,10.199-4.566,10.199-10.199v-303.67h37.7
		c5.633,0,10.199-4.566,10.199-10.199V56.208C512,50.575,507.434,46.009,501.801,46.009z M68.298,445.593V208.727
		C102.275,278.149,173.641,326.074,256,326.074s153.725-47.925,187.702-117.348v236.866H68.298V445.593z M70.808,152.122h370.384
		C424.782,239.417,347.989,305.675,256,305.675S87.218,239.417,70.808,152.122z M491.602,131.724H464.33
		c0.329-4.79,0.511-9.62,0.511-14.492v-10.603c0-5.633-4.566-10.199-10.199-10.199s-10.199,4.566-10.199,10.199v10.603
		c0,4.875-0.187,9.709-0.552,14.492H68.108c-0.365-4.783-0.552-9.617-0.552-14.492v-10.603c0-5.633-4.566-10.199-10.199-10.199
		s-10.199,4.566-10.199,10.199v10.603c0,4.872,0.182,9.702,0.511,14.492H20.398V66.407h471.203V131.724z"/>
	<path style="fill:#4D3D36;" d="M199.904,415.108H92.761c-5.633,0-10.199,4.566-10.199,10.199c0,5.633,4.566,10.199,10.199,10.199
		h107.144c5.633,0,10.199-4.566,10.199-10.199C210.104,419.674,205.537,415.108,199.904,415.108z"/>
	<path style="fill:#4D3D36;" d="M234.582,415.108h-3.112c-5.633,0-10.199,4.566-10.199,10.199c0,5.633,4.566,10.199,10.199,10.199
		h3.112c5.633,0,10.199-4.566,10.199-10.199C244.781,419.674,240.215,415.108,234.582,415.108z"/>
</g>
<g>
</g>
<g>
</g>
<g>
</g>
<g>
</g>
<g>
</g>
<g>
</g>
<g>
</g>
<g>
</g>
<g>
</g>
<g>
</g>
<g>
</g>
<g>
</g>
<g>
</g>
<g>
</g>
<g>
</g>
</svg>
